<svg width="1200" height="600" viewBox="0 0 1200 600" fill="none" xmlns="http://www.w3.org/2000/svg">
<rect width="1200" height="600" fill="url(#paint0_linear_732_831)"/>
<path d="M1200 523H722.5L875 599.5H1200V523Z" fill="#949DE8" fill-opacity="0.5"/>
<path d="M507.79 483.227C242.639 450.183 0 465.585 0 465.585V600H876C768.228 525.145 676.661 504.272 507.79 483.227Z" fill="#F9D3BE"/>
<path d="M665.099 443.393C649.546 444.756 599.988 437.468 584.367 437.051C575.895 436.898 567.441 436.306 559.047 435.277C519.314 430.06 473.103 413.966 444.143 389.157C415.182 364.348 400.309 335.719 380 301.3L504.973 306.208C504.973 306.208 563.118 436.215 624.843 443.393H665.099Z" fill="#DF78DD"/>
<path d="M473.662 328.54C494.814 320.258 525.357 325.201 540.059 341.09C543.774 345.102 546.74 349.643 550.47 353.646C563.358 367.458 583.962 373.442 603.84 376.391C623.718 379.34 662.415 383.042 694.618 393.144C723.601 402.237 733.979 406.437 759.027 419.199C749.975 430.171 750.436 423.698 736.577 429.419C690.413 448.418 640.081 458.007 589.24 457.488C576.522 457.347 563.718 456.558 551.43 453.632C542.873 451.483 534.564 448.619 526.613 445.077C500.193 433.685 476.278 418.164 456 399.25C432.576 377.385 444.174 340.087 473.662 328.54Z" fill="#26C9DA"/>
<path d="M380 301.298C380 301.298 445.931 428.237 579.218 434.617C579.218 434.617 739.344 454.556 878 316.575C878 316.575 804.348 520.758 570.57 494.703C570.573 494.704 420.288 486.196 380 301.298Z" fill="#AE57DD"/>
<path d="M494.986 341.409C491.047 346.744 491.224 353.678 488.463 359.571C487.235 362.205 485.395 364.659 484.819 367.474C484.425 370.154 484.81 372.88 485.937 375.39C487.064 377.9 488.895 380.11 491.255 381.807C495.838 384.758 504.965 387.71 510.539 388.543C522.129 390.274 535.785 390.488 548.109 385.175C558.694 380.609 561.922 369.856 561.753 359.377C561.721 357.344 561.374 355.226 562.227 353.342C563.208 351.169 565.559 349.781 567.779 348.53L590.972 335.449C595.649 332.812 610.744 319.625 600.192 313.215C595.819 310.556 588.663 312.152 579.717 316.583C570.548 321.124 558.646 327.395 551.092 329.876C538.63 333.97 535.344 333.623 523.219 332.392C513.574 331.404 500.728 333.63 494.986 341.409Z" fill="#EF00C3"/>
<path d="M464.249 361.844C464.249 361.844 475.619 364.307 478.566 358.122C478.566 358.122 480.415 354.017 477.373 347.487" stroke="#268EA4" stroke-width="1.973" stroke-miterlimit="10"/>
<path d="M511.135 371.876C511.135 371.876 562.622 380.387 581.507 366.736C581.507 366.736 588.462 362.306 580.513 356.102C573.1 352.492 564.889 350.375 556.458 349.901" fill="#EF00C3"/>
<path d="M517.5 370.458C517.5 370.458 538.572 361.063 557.861 351.847C557.861 351.847 584.897 355.569 581.915 362.481C581.904 362.481 574.151 375.065 517.5 370.458Z" fill="#B4008E"/>
<path d="M491.853 368.153C498.28 370.581 505.466 370.895 512.129 369.039C521.473 366.662 530.478 363.331 538.965 359.114C538.965 359.114 565.604 345.644 577.928 339.618C577.928 339.618 602.579 328.097 603.573 318.525C603.573 318.525 605.755 326.502 590.453 335.546C590.453 335.546 577.332 343.344 573.953 345.472C573.953 345.472 541.5 363.533 517.894 370.817C503.572 375.231 494.855 372.906 491.853 368.153Z" fill="#D300AD"/>
<path d="M671.36 318.583L686.062 322.236L661.305 353.043L651.909 352.887L646.156 347.021L671.36 318.583Z" fill="#FF4675"/>
<path d="M668.455 316.105L668.121 313.543L678.858 304.354L688.89 305.259L695.506 307.665L695.882 310.118L687.462 324.488L668.455 316.105Z" fill="#FF4675"/>
<path d="M671.431 310.261C671.826 308.35 670.756 306.573 669.04 306.291C667.324 306.008 665.612 307.328 665.217 309.238C664.822 311.149 665.893 312.926 667.608 313.208C669.324 313.491 671.036 312.171 671.431 310.261Z" fill="black"/>
<path d="M676.653 303.784C676.986 302.171 676.082 300.67 674.633 300.432C673.183 300.193 671.738 301.308 671.404 302.921C671.07 304.534 671.975 306.035 673.424 306.273C674.873 306.512 676.319 305.397 676.653 303.784Z" fill="black"/>
<path d="M576.668 400.684C579.844 408.908 587.93 414.038 596.219 417.666C605.904 421.768 616.287 424.404 626.942 425.468C634.45 426.391 642.099 425.579 649.154 423.11C663.505 417.761 663.056 396.497 663.056 396.497C662.677 395.316 662.552 394.081 662.687 392.859C663.641 388.706 669.214 388.388 673.05 385.346C676.097 382.891 678.236 379.669 679.186 376.107C679.921 373.643 681.114 365.136 681.114 365.136C681.114 365.136 666.244 359.88 660.261 356.99C651.313 352.623 641.404 350.048 631.226 349.444C627.733 349.255 617.509 344.2 617.509 344.2C617.509 344.2 615.401 354.718 615.29 358.083C615.181 361.357 617.314 364.703 616.701 367.886C615.883 372.101 610.914 373.764 606.629 374.761C599.655 376.384 576.912 377.387 576.912 377.387C576.912 377.387 574.225 394.352 576.668 400.684Z" fill="#FF4675"/>
<path d="M578.603 387.433C582.462 395.425 590.796 400.694 599.085 404.323C608.439 408.447 618.515 411.117 628.877 412.217C636.5 413.003 644.378 412.825 651.091 409.859C654.614 408.352 657.61 406.017 659.755 403.104C661.901 400.192 663.115 396.813 663.266 393.331C663.342 388.59 661.428 383.188 664.147 379.442C666.623 376.03 672.694 374.289 676.452 372.183C682.695 368.685 683.49 361.95 678.489 355.173C674.558 349.847 668.171 346.634 662.187 343.745C653.239 339.378 643.331 336.803 633.153 336.199C629.7 335.835 626.2 336.248 622.972 337.4C621.343 338.053 619.945 339.092 618.931 340.403C617.916 341.714 617.323 343.248 617.217 344.838C617.108 348.112 619.24 351.458 618.628 354.641C617.81 358.856 612.841 360.519 608.555 361.516C594.834 364.707 569.115 366.597 578.603 387.433Z" fill="#FFBE52"/>
<path d="M671.929 314.323L686.631 317.977L661.874 348.783L652.477 348.627L646.723 342.761L671.929 314.323Z" fill="black"/>
<path d="M668.086 313.544L678.489 301.792L688.522 302.698L695.513 307.557L687.237 321.673L668.086 313.544Z" fill="#FFBE52"/>
<path d="M694.413 320.258C694.808 318.347 693.738 316.57 692.022 316.288C690.306 316.005 688.594 317.325 688.199 319.236C687.804 321.146 688.874 322.923 690.59 323.205C692.306 323.488 694.018 322.168 694.413 320.258Z" fill="black"/>
<path d="M698.031 312.315C698.365 310.702 697.461 309.201 696.012 308.963C694.562 308.725 693.117 309.839 692.783 311.452C692.449 313.065 693.354 314.566 694.803 314.805C696.252 315.043 697.698 313.929 698.031 312.315Z" fill="black"/>
<path d="M651.812 368.641C651.882 363.476 646.056 359.225 638.8 359.148C631.544 359.07 625.606 363.195 625.536 368.36C625.467 373.525 631.292 377.776 638.548 377.853C645.804 377.931 651.743 373.807 651.812 368.641Z" fill="#BC2B5D"/>
<path d="M603.03 388.804L625.899 398.289L632.876 389.834L609.754 381.467L603.03 388.804Z" fill="black"/>
<path d="M673.225 315.637L611.678 388.725" stroke="white" stroke-width="0.65" stroke-miterlimit="10"/>
<path d="M676.002 317.148L614.872 390.098" stroke="white" stroke-width="0.65" stroke-miterlimit="10"/>
<path d="M679.409 318.628L618.065 391.47" stroke="white" stroke-width="0.65" stroke-miterlimit="10"/>
<path d="M682.499 319.777L621.258 392.843" stroke="white" stroke-width="0.65" stroke-miterlimit="10"/>
<path d="M681.793 318.98C680.08 318.188 677.838 317.504 676.37 318.615C674.615 319.94 675.361 322.855 673.506 324.061C672.133 324.953 669.744 324.585 669.051 325.968C668.619 326.829 669.2 327.801 669.298 328.74C669.591 331.554 665.801 333.116 662.731 333.826C664.414 334.57 664.057 336.888 662.877 338.19C661.698 339.492 659.954 340.447 659.286 342.012C658.979 343.023 659.022 344.092 659.408 345.08C659.794 346.069 660.506 346.93 661.45 347.552C663.361 348.763 665.464 349.712 667.691 350.367C671.512 351.794 675.075 353.72 678.261 356.081C681.487 358.471 684.499 361.391 688.553 362.351C692.757 363.345 697.223 361.994 701.029 360.118C705.546 357.891 709.619 354.535 711.119 350.001C712.63 345.437 709.5 341.983 706.591 338.31C700.169 330.198 691.667 323.571 681.793 318.98V318.98Z" fill="#9000A6"/>
<path d="M625.389 375.095C627.478 371.696 630.475 368.809 634.114 366.688C637.752 364.568 641.921 363.28 646.251 362.938C646.495 364.213 646.419 365.521 646.031 366.769C645.643 368.016 644.951 369.171 644.006 370.153C644.936 369.599 646.042 369.328 647.159 369.38C648.276 369.433 649.344 369.806 650.203 370.445C651.062 371.083 651.667 371.952 651.926 372.922C652.185 373.893 652.086 374.912 651.642 375.827C650.875 377.407 649.099 379.077 650.089 380.56C651.246 382.292 654.597 381.199 656.257 382.567C658.393 384.325 655.539 387.598 656.53 390.036C657.235 391.777 659.556 392.403 661.303 393.398C662.899 394.432 664.171 395.812 664.998 397.408C665.826 399.005 666.181 400.763 666.029 402.517C665.675 406.024 664.39 409.406 662.28 412.383C658.908 417.659 654.57 422.396 649.448 426.399C644.768 430.046 638.722 433.207 632.629 432.086C621.792 430.102 615.492 417.368 617.187 408.48C619.163 398.114 619.832 384.345 625.389 375.095Z" fill="#9000A6"/>
<path fill-rule="evenodd" clip-rule="evenodd" d="M302.069 176.393C305.75 174.268 305.756 167.389 302.082 161.028C298.409 154.667 292.446 151.233 288.765 153.357C285.084 155.482 285.078 162.361 288.752 168.723C292.425 175.084 298.387 178.518 302.069 176.393ZM302.09 190.014C305.764 196.375 305.758 203.254 302.077 205.379C298.396 207.504 292.433 204.07 288.76 197.709C285.086 191.348 285.092 184.468 288.773 182.344C292.455 180.219 298.417 183.653 302.09 190.014ZM327.176 204.514C330.85 210.875 330.844 217.754 327.163 219.879C323.482 222.004 317.519 218.57 313.846 212.208C310.172 205.847 310.178 198.968 313.86 196.843C317.541 194.718 323.503 198.153 327.176 204.514ZM327.168 175.528C330.842 181.889 330.836 188.769 327.154 190.893C323.473 193.018 317.511 189.584 313.838 183.223C310.164 176.862 310.17 169.983 313.851 167.858C317.532 165.733 323.495 169.167 327.168 175.528Z" fill="#F26E7E"/>
<path fill-rule="evenodd" clip-rule="evenodd" d="M377.352 168.739C381.025 162.378 381.019 155.499 377.338 153.374C373.657 151.249 367.695 154.683 364.021 161.044C360.348 167.405 360.354 174.285 364.035 176.41C367.716 178.534 373.678 175.1 377.352 168.739ZM377.352 182.353C381.034 184.477 381.04 191.357 377.366 197.718C373.693 204.079 367.73 207.513 364.049 205.388C360.368 203.263 360.362 196.384 364.036 190.023C367.709 183.662 373.671 180.228 377.352 182.353ZM352.272 196.829C355.953 198.954 355.959 205.833 352.285 212.194C348.612 218.555 342.65 221.989 338.968 219.864C335.287 217.74 335.281 210.86 338.955 204.499C342.628 198.138 348.591 194.704 352.272 196.829ZM352.258 167.85C355.939 169.975 355.945 176.854 352.271 183.215C348.598 189.576 342.635 193.01 338.954 190.885C335.273 188.76 335.267 181.881 338.941 175.52C342.614 169.159 348.576 165.725 352.258 167.85Z" fill="#8A3391"/>
<path fill-rule="evenodd" clip-rule="evenodd" d="M346.35 128.695C346.35 132.944 340.394 136.389 333.047 136.389C325.7 136.389 319.744 132.944 319.744 128.695C319.744 124.445 325.7 121 333.047 121C340.394 121 346.35 124.445 346.35 128.695ZM321.27 143.156C321.27 147.406 315.314 150.851 307.966 150.851C300.619 150.851 294.663 147.406 294.663 143.156C294.663 138.906 300.619 135.461 307.966 135.461C315.314 135.461 321.27 138.906 321.27 143.156ZM358.161 150.851C365.508 150.851 371.464 147.406 371.464 143.156C371.464 138.906 365.508 135.461 358.161 135.461C350.813 135.461 344.857 138.906 344.857 143.156C344.857 147.406 350.813 150.851 358.161 150.851ZM346.35 157.649C346.35 161.899 340.394 165.344 333.047 165.344C325.7 165.344 319.744 161.899 319.744 157.649C319.744 153.399 325.7 149.954 333.047 149.954C340.394 149.954 346.35 153.399 346.35 157.649Z" fill="#F7BF2A"/>
<path fill-rule="evenodd" clip-rule="evenodd" d="M525.264 138.878H530.21C531.745 138.878 532.597 139.73 532.597 141.265V198.681C532.597 200.215 531.745 201.068 530.21 201.068H525.264C523.729 201.068 522.876 200.215 522.876 198.681V141.265C522.876 139.73 523.729 138.878 525.264 138.878ZM430.145 201.067C431.68 201.067 432.533 200.215 432.533 198.68V179.457H442.552C455.257 179.457 463.23 171.869 463.23 160.446C463.23 149.065 455.257 141.435 442.552 141.435H424.858C423.323 141.435 422.471 142.288 422.471 143.822V198.68C422.471 200.215 423.323 201.067 424.858 201.067H430.145ZM432.533 149.918H441.912C449.075 149.918 453.126 154.052 453.126 160.446C453.126 166.882 449.075 171.017 441.912 171.017H432.533V149.918ZM470.394 159.338V184.145C470.394 195.015 477.429 202.048 488.045 202.048C493.673 202.048 498.491 199.277 501.475 195.228V198.68C501.475 200.215 502.328 201.067 503.863 201.067H508.851C510.386 201.067 511.239 200.215 511.239 198.68V159.338C511.239 157.803 510.386 156.951 508.851 156.951H503.863C502.328 156.951 501.475 157.803 501.475 159.338V180.991C501.475 188.323 496.188 193.48 490.049 193.48C484.165 193.48 480.115 189.303 480.115 183.335V159.338C480.115 157.803 479.262 156.951 477.727 156.951H472.782C471.247 156.951 470.394 157.803 470.394 159.338ZM543.428 159.338V184.145C543.428 195.015 550.463 202.048 561.079 202.048C566.707 202.048 571.525 199.277 574.509 195.228V198.68C574.509 200.215 575.362 201.067 576.897 201.067H581.885C583.42 201.067 584.273 200.215 584.273 198.68V159.338C584.273 157.803 583.42 156.951 581.885 156.951H576.897C575.362 156.951 574.509 157.803 574.509 159.338V180.991C574.509 188.323 569.222 193.48 563.083 193.48C557.199 193.48 553.149 189.303 553.149 183.335V159.338C553.149 157.803 552.296 156.951 550.761 156.951H545.816C544.281 156.951 543.428 157.803 543.428 159.338ZM664.257 173.873V198.723C664.257 200.258 663.404 201.11 661.869 201.11H656.881C655.346 201.11 654.493 200.258 654.493 198.723V174.726C654.493 168.758 650.784 164.581 645.327 164.581C639.827 164.581 634.625 170.122 634.625 176.814V198.723C634.625 200.258 633.772 201.11 632.238 201.11H627.249C625.714 201.11 624.862 200.258 624.862 198.723V174.726C624.862 168.758 621.152 164.581 615.695 164.581C610.451 164.581 604.993 169.611 604.993 176.814V198.723C604.993 200.258 604.141 201.11 602.606 201.11H597.618C596.083 201.11 595.23 200.258 595.23 198.723V159.338C595.23 157.803 596.083 156.951 597.618 156.951H602.606C604.141 156.951 604.993 157.803 604.993 159.338V162.705C608.106 158.613 612.583 155.928 617.742 155.928C624.393 155.928 629.978 159.381 632.749 165.092C635.648 159.551 641.02 155.928 647.331 155.928C656.924 155.928 664.257 163.004 664.257 173.873ZM686 144.931C686 141.563 683.356 138.963 679.946 138.963C676.535 138.963 673.934 141.563 673.934 144.931C673.934 148.255 676.535 150.856 679.946 150.856C683.356 150.856 686 148.255 686 144.931ZM684.806 159.338C684.806 157.803 683.953 156.951 682.418 156.951H677.473C675.938 156.951 675.085 157.803 675.085 159.338V198.681C675.085 200.215 675.938 201.068 677.473 201.068H682.418C683.953 201.068 684.806 200.215 684.806 198.681V159.338Z" fill="black"/>
<path d="M701.222 200V140.364H721.372C726.051 140.364 729.875 141.208 732.845 142.897C735.835 144.567 738.048 146.828 739.484 149.682C740.921 152.536 741.639 155.719 741.639 159.233C741.639 162.747 740.921 165.94 739.484 168.813C738.067 171.686 735.874 173.977 732.903 175.685C729.933 177.374 726.128 178.219 721.489 178.219H707.045V171.812H721.256C724.459 171.812 727.031 171.259 728.972 170.153C730.914 169.046 732.321 167.551 733.195 165.668C734.088 163.766 734.534 161.621 734.534 159.233C734.534 156.845 734.088 154.71 733.195 152.827C732.321 150.944 730.904 149.468 728.943 148.401C726.982 147.313 724.381 146.77 721.139 146.77H708.443V200H701.222ZM752.341 200V155.273H758.98V162.028H759.446C760.261 159.815 761.736 158.02 763.872 156.641C766.007 155.263 768.414 154.574 771.093 154.574C771.598 154.574 772.229 154.584 772.986 154.603C773.743 154.622 774.316 154.652 774.704 154.69V161.679C774.471 161.621 773.937 161.533 773.103 161.417C772.287 161.281 771.423 161.213 770.511 161.213C768.337 161.213 766.395 161.669 764.687 162.582C762.998 163.475 761.659 164.717 760.669 166.309C759.698 167.881 759.213 169.677 759.213 171.696V200H752.341ZM800.242 200.932C795.932 200.932 792.215 199.981 789.089 198.078C785.983 196.156 783.586 193.477 781.897 190.041C780.227 186.586 779.392 182.567 779.392 177.986C779.392 173.404 780.227 169.366 781.897 165.872C783.586 162.358 785.935 159.621 788.944 157.661C791.972 155.68 795.505 154.69 799.543 154.69C801.873 154.69 804.173 155.079 806.444 155.855C808.716 156.632 810.783 157.893 812.647 159.641C814.51 161.368 815.995 163.659 817.102 166.513C818.208 169.366 818.762 172.88 818.762 177.054V179.966H784.284V174.026H811.773C811.773 171.502 811.268 169.25 810.259 167.27C809.269 165.29 807.852 163.727 806.007 162.582C804.183 161.436 802.028 160.864 799.543 160.864C796.806 160.864 794.437 161.543 792.438 162.902C790.458 164.241 788.934 165.989 787.866 168.143C786.798 170.298 786.265 172.608 786.265 175.074V179.034C786.265 182.412 786.847 185.275 788.012 187.624C789.196 189.954 790.836 191.73 792.933 192.953C795.029 194.157 797.466 194.759 800.242 194.759C802.047 194.759 803.678 194.506 805.134 194.001C806.609 193.477 807.881 192.701 808.949 191.672C810.016 190.624 810.841 189.323 811.424 187.77L818.063 189.634C817.364 191.885 816.19 193.866 814.539 195.574C812.889 197.263 810.851 198.583 808.424 199.534C805.998 200.466 803.27 200.932 800.242 200.932ZM860.897 165.29L854.724 167.037C854.336 166.008 853.763 165.008 853.006 164.038C852.268 163.048 851.259 162.232 849.978 161.592C848.696 160.951 847.056 160.631 845.056 160.631C842.319 160.631 840.038 161.262 838.213 162.523C836.408 163.766 835.505 165.348 835.505 167.27C835.505 168.978 836.127 170.327 837.369 171.317C838.611 172.308 840.553 173.133 843.193 173.793L849.832 175.423C853.831 176.394 856.811 177.879 858.772 179.879C860.732 181.859 861.713 184.411 861.713 187.537C861.713 190.099 860.975 192.39 859.5 194.409C858.044 196.428 856.005 198.02 853.385 199.185C850.764 200.349 847.716 200.932 844.241 200.932C839.679 200.932 835.903 199.942 832.914 197.962C829.924 195.982 828.031 193.089 827.235 189.284L833.758 187.653C834.379 190.061 835.554 191.866 837.282 193.07C839.029 194.273 841.31 194.875 844.125 194.875C847.328 194.875 849.871 194.196 851.754 192.837C853.656 191.458 854.608 189.808 854.608 187.886C854.608 186.333 854.064 185.033 852.977 183.984C851.89 182.917 850.22 182.121 847.968 181.597L840.514 179.849C836.418 178.879 833.409 177.374 831.487 175.336C829.584 173.278 828.633 170.706 828.633 167.619C828.633 165.096 829.342 162.863 830.759 160.922C832.195 158.981 834.146 157.457 836.612 156.35C839.097 155.244 841.912 154.69 845.056 154.69C849.483 154.69 852.958 155.661 855.481 157.602C858.024 159.544 859.83 162.106 860.897 165.29ZM903.739 165.29L897.566 167.037C897.178 166.008 896.605 165.008 895.848 164.038C895.11 163.048 894.101 162.232 892.819 161.592C891.538 160.951 889.898 160.631 887.898 160.631C885.161 160.631 882.88 161.262 881.055 162.523C879.25 163.766 878.347 165.348 878.347 167.27C878.347 168.978 878.968 170.327 880.211 171.317C881.453 172.308 883.394 173.133 886.035 173.793L892.674 175.423C896.673 176.394 899.653 177.879 901.613 179.879C903.574 181.859 904.555 184.411 904.555 187.537C904.555 190.099 903.817 192.39 902.341 194.409C900.885 196.428 898.847 198.02 896.226 199.185C893.606 200.349 890.558 200.932 887.083 200.932C882.521 200.932 878.745 199.942 875.756 197.962C872.766 195.982 870.873 193.089 870.077 189.284L876.6 187.653C877.221 190.061 878.396 191.866 880.123 193.07C881.871 194.273 884.152 194.875 886.966 194.875C890.17 194.875 892.713 194.196 894.596 192.837C896.498 191.458 897.449 189.808 897.449 187.886C897.449 186.333 896.906 185.033 895.819 183.984C894.732 182.917 893.062 182.121 890.81 181.597L883.356 179.849C879.26 178.879 876.251 177.374 874.329 175.336C872.426 173.278 871.475 170.706 871.475 167.619C871.475 165.096 872.184 162.863 873.601 160.922C875.037 158.981 876.988 157.457 879.454 156.35C881.939 155.244 884.753 154.69 887.898 154.69C892.324 154.69 895.799 155.661 898.323 157.602C900.866 159.544 902.671 162.106 903.739 165.29Z" fill="black"/>
<defs>
<linearGradient id="paint0_linear_732_831" x1="600" y1="0" x2="600" y2="600" gradientUnits="userSpaceOnUse">
<stop stop-color="#FAD97F"/>
<stop offset="1" stop-color="#F7A8B2"/>
</linearGradient>
</defs>
</svg>
